<svg width="117" height="93" viewBox="0 0 117 93" fill="none" xmlns="http://www.w3.org/2000/svg">
<path d="M109.407 91.9875V81.2927H117V82.8817H111.057V90.3985H117V91.9875H109.407ZM110.217 87.2971V85.7081H116.16V87.2971H110.217Z" fill="#FAF3FF"/>
<path d="M101.767 92.1402C101.105 92.1402 100.494 92.0638 99.934 91.911C99.384 91.7582 98.8798 91.5291 98.4215 91.2235C97.9733 90.9078 97.5659 90.5207 97.1992 90.0624L98.2992 88.7332C98.8594 89.436 99.4146 89.935 99.9646 90.2304C100.515 90.5156 101.151 90.6582 101.874 90.6582C102.312 90.6582 102.725 90.5971 103.112 90.4749C103.499 90.3526 103.81 90.1744 104.044 89.9401C104.278 89.7059 104.395 89.4258 104.395 89.0998C104.395 88.8859 104.339 88.6975 104.227 88.5345C104.125 88.3716 103.978 88.2341 103.784 88.122C103.601 87.9998 103.382 87.8929 103.127 87.8012C102.883 87.7095 102.623 87.6331 102.348 87.572C102.073 87.5007 101.788 87.4447 101.492 87.404C100.891 87.3021 100.357 87.1646 99.8882 86.9914C99.4196 86.8183 99.0224 86.5993 98.6965 86.3345C98.3807 86.0697 98.1414 85.7641 97.9784 85.4178C97.8154 85.0613 97.734 84.6539 97.734 84.1955C97.734 83.7474 97.8358 83.3349 98.0395 82.958C98.2534 82.5811 98.5437 82.2603 98.9104 81.9955C99.2872 81.7205 99.7252 81.5117 100.224 81.3691C100.723 81.2163 101.263 81.1399 101.844 81.1399C102.465 81.1399 103.03 81.2112 103.54 81.3538C104.049 81.4964 104.502 81.7103 104.899 81.9955C105.297 82.2705 105.628 82.6117 105.893 83.0191L104.762 84.1955C104.528 83.8492 104.258 83.5589 103.952 83.3247C103.647 83.0904 103.31 82.9173 102.944 82.8052C102.587 82.683 102.205 82.6219 101.798 82.6219C101.34 82.6219 100.932 82.683 100.576 82.8052C100.229 82.9274 99.9544 83.1006 99.7507 83.3247C99.547 83.5386 99.4451 83.7983 99.4451 84.1039C99.4451 84.3381 99.5011 84.5469 99.6132 84.7303C99.7252 84.9136 99.8882 85.0766 100.102 85.2192C100.316 85.3516 100.591 85.4687 100.927 85.5706C101.263 85.6622 101.645 85.7437 102.073 85.815C102.654 85.9169 103.188 86.0493 103.677 86.2123C104.176 86.365 104.604 86.5586 104.961 86.7928C105.327 87.0169 105.607 87.2919 105.801 87.6178C106.005 87.9438 106.106 88.3257 106.106 88.7637C106.106 89.4461 105.928 90.042 105.572 90.5513C105.215 91.0605 104.711 91.4527 104.059 91.7277C103.417 92.0027 102.654 92.1402 101.767 92.1402Z" fill="#FAF3FF"/>
<path d="M86.3408 91.9875V81.2927H91.4437C92.0447 81.2927 92.5896 81.4404 93.0785 81.7358C93.5776 82.021 93.9748 82.4131 94.2702 82.9122C94.5758 83.4113 94.7286 83.9664 94.7286 84.5775C94.7286 85.1989 94.5707 85.7641 94.2549 86.2734C93.9494 86.7827 93.5369 87.1901 93.0174 87.4957C92.5081 87.8012 91.9428 87.954 91.3215 87.954H87.9909V91.9875H86.3408ZM87.9909 86.3651H91.2451C91.5609 86.3651 91.8512 86.2836 92.116 86.1206C92.391 85.9577 92.61 85.7438 92.7729 85.479C92.9359 85.2039 93.0174 84.9035 93.0174 84.5775C93.0174 84.2618 92.9359 83.9766 92.7729 83.722C92.61 83.4673 92.391 83.2636 92.116 83.1108C91.8512 82.958 91.5609 82.8817 91.2451 82.8817H87.9909V86.3651Z" fill="#FAF3FF"/>
<path d="M71.2266 91.9875V81.2927H72.8461L77.1239 87.511L76.4212 87.4957L80.7449 81.2927H82.3033V91.9875H80.6532V87.5415C80.6532 86.6554 80.6736 85.8456 80.7143 85.1123C80.7653 84.3687 80.8467 83.6252 80.9588 82.8817L81.1574 83.4775L77.2462 88.9165H76.2378L72.403 83.5081L72.571 82.8817C72.6831 83.6048 72.7595 84.3331 72.8002 85.0664C72.8511 85.7896 72.8766 86.6146 72.8766 87.5415V91.9875H71.2266Z" fill="#FAF3FF"/>
<path d="M61.4346 91.9875V90.4138H63.5888V82.8664H61.4346V81.2927H67.3931V82.8664H65.2388V90.4138H67.3931V91.9875H61.4346Z" fill="#FAF3FF"/>
<path d="M50.6523 91.9875V81.2927H52.3024V90.3985H58.1692V91.9875H50.6523Z" fill="#FAF3FF"/>
<path d="M42.1022 92.1401C41.2975 92.1401 40.5387 92.0128 39.8257 91.7582C39.1229 91.4933 38.5016 91.1216 37.9618 90.6429C37.422 90.154 36.9993 89.5734 36.6937 88.9011C36.3881 88.2187 36.2354 87.465 36.2354 86.64C36.2354 85.8761 36.383 85.1631 36.6784 84.501C36.984 83.839 37.4067 83.2635 37.9465 82.7746C38.4965 82.2755 39.1331 81.8884 39.8563 81.6134C40.5795 81.3384 41.3586 81.2009 42.1938 81.2009C42.8253 81.2009 43.4263 81.2824 43.9967 81.4454C44.5671 81.6083 45.0763 81.8273 45.5245 82.1023C45.9828 82.3773 46.3495 82.6829 46.6245 83.019L45.5551 84.1649C45.2291 83.8797 44.8828 83.6403 44.5161 83.4468C44.1596 83.2431 43.7828 83.0852 43.3855 82.9732C42.9985 82.8612 42.6013 82.8051 42.1938 82.8051C41.5929 82.8051 41.0327 82.9019 40.5132 83.0954C40.004 83.2889 39.5558 83.5589 39.1688 83.9052C38.7817 84.2515 38.4812 84.6589 38.2674 85.1274C38.0535 85.5858 37.9465 86.09 37.9465 86.64C37.9465 87.2307 38.0586 87.7655 38.2826 88.2442C38.5067 88.7229 38.8174 89.1354 39.2146 89.4817C39.6118 89.8178 40.0651 90.0776 40.5744 90.2609C41.0836 90.4442 41.6235 90.5359 42.1938 90.5359C42.6726 90.5359 43.1258 90.4799 43.5536 90.3678C43.9916 90.2456 44.3735 90.0776 44.6995 89.8637C45.0356 89.6498 45.2902 89.4002 45.4634 89.115C45.6467 88.8197 45.7333 88.509 45.7231 88.1831V87.9233L45.9523 88.1831H42.1633V86.5636H47.4495C47.4699 86.696 47.4852 86.8131 47.4954 86.915C47.5056 87.0066 47.5107 87.0932 47.5107 87.1747C47.5208 87.246 47.5259 87.3173 47.5259 87.3886C47.5259 88.1321 47.3884 88.7993 47.1134 89.39C46.8384 89.9706 46.4565 90.4646 45.9676 90.872C45.4888 91.2794 44.9185 91.5952 44.2564 91.8193C43.6045 92.0332 42.8865 92.1401 42.1022 92.1401Z" fill="#FAF3FF"/>
<path fill-rule="evenodd" clip-rule="evenodd" d="M90.3958 14.1641H3.66016V9.38965H92.4647C93.9589 9.38965 95.1702 10.6009 95.1702 12.0952V28.3282H90.3958V14.1641Z" fill="#FAF3FF"/>
<path fill-rule="evenodd" clip-rule="evenodd" d="M22.917 85.6216L22.917 0L27.6914 2.08697e-07L27.6914 85.6216L22.917 85.6216Z" fill="#FAF3FF"/>
<path fill-rule="evenodd" clip-rule="evenodd" d="M-5.19452e-08 76.5501L0 9.38965L4.77444 9.38965L4.77444 76.5501L-5.19452e-08 76.5501Z" fill="#FAF3FF"/>
<path fill-rule="evenodd" clip-rule="evenodd" d="M64.9575 41.856H93.7379C95.2321 41.856 96.4434 43.0673 96.4434 44.5615V73.8447C96.4434 75.3389 95.2321 76.5502 93.7379 76.5502H3.66016V71.7758H91.6689V46.6304H64.9575V41.856Z" fill="#FAF3FF"/>
<path fill-rule="evenodd" clip-rule="evenodd" d="M48.6997 56.3384C55.4676 56.3384 60.9541 50.8519 60.9541 44.084C60.9541 37.3161 55.4676 31.8296 48.6997 31.8296C41.9318 31.8296 36.4453 37.3161 36.4453 44.084C36.4453 50.8519 41.9318 56.3384 48.6997 56.3384ZM48.6997 61.1128C58.1045 61.1128 65.7285 53.4888 65.7285 44.084C65.7285 34.6792 58.1045 27.0552 48.6997 27.0552C39.295 27.0552 31.6709 34.6792 31.6709 44.084C31.6709 53.4888 39.295 61.1128 48.6997 61.1128Z" fill="#FAF3FF"/>
<path fill-rule="evenodd" clip-rule="evenodd" d="M48.6996 45.5162C49.4906 45.5162 50.1319 44.8749 50.1319 44.0839C50.1319 43.2928 49.4906 42.6515 48.6996 42.6515C47.9085 42.6515 47.2673 43.2928 47.2673 44.0839C47.2673 44.8749 47.9085 45.5162 48.6996 45.5162ZM48.6996 47.1077C50.3696 47.1077 51.7234 45.7539 51.7234 44.0839C51.7234 42.4139 50.3696 41.0601 48.6996 41.0601C47.0296 41.0601 45.6758 42.4139 45.6758 44.0839C45.6758 45.7539 47.0296 47.1077 48.6996 47.1077Z" fill="#FAF3FF"/>
<path d="M4.29688 4.93367C4.29688 3.79103 5.22316 2.86475 6.3658 2.86475H18.1427C19.2854 2.86475 20.2117 3.79103 20.2117 4.93367C20.2117 6.0763 19.2854 7.00259 18.1427 7.00259H6.3658C5.22316 7.00259 4.29688 6.0763 4.29688 4.93367Z" fill="#FFA113"/>
</svg>
